<svg width="31" height="31" viewBox="0 0 31 31" fill="none" xmlns="http://www.w3.org/2000/svg">
<path id="Union" fill-rule="evenodd" clip-rule="evenodd" d="M30.0254 3.97938C30.8635 3.13775 30.8609 1.7758 30.0195 0.937399C29.1781 0.0989926 27.8165 0.101611 26.9784 0.943245L15.6105 12.358L4.32226 1.08285C3.48186 0.24343 2.12029 0.244407 1.2811 1.08503C0.441908 1.92566 0.442884 3.2876 1.28328 4.12702L12.5752 15.4058L1.38373 26.6434C0.545548 27.4851 0.548164 28.847 1.38957 29.6854C2.23098 30.5238 3.59255 30.5212 4.43073 29.6796L15.6185 18.4456L26.77 29.5841C27.6104 30.4235 28.972 30.4226 29.8112 29.5819C30.6504 28.7413 30.6494 27.3794 29.809 26.54L18.6539 15.3978L30.0254 3.97938Z" fill="#F38A8A"/>
</svg>
