<svg width="26" height="26" viewBox="0 0 26 26" fill="none" xmlns="http://www.w3.org/2000/svg">
<path id="Union" fill-rule="evenodd" clip-rule="evenodd" d="M9.55573 17.4836C13.5783 17.4836 16.8615 14.1977 16.8615 10.1168C16.8615 6.03587 13.5783 2.75 9.55573 2.75C5.5332 2.75 2.25 6.03587 2.25 10.1168C2.25 14.1977 5.5332 17.4836 9.55573 17.4836ZM9.55573 19.4836C11.9121 19.4836 14.0639 18.602 15.7033 17.1487L16.2236 17.7124C16.0012 18.3137 16.1309 19.0158 16.6135 19.4997L22.3485 25.2506C23.0106 25.9145 24.0859 25.9165 24.7503 25.255C25.4148 24.5935 25.4167 23.5191 24.7547 22.8552L19.0196 17.1043C18.5251 16.6084 17.8 16.4818 17.1878 16.7252L16.666 16.1599C18.0357 14.5287 18.8615 12.4198 18.8615 10.1168C18.8615 4.94365 14.6951 0.75 9.55573 0.75C4.41632 0.75 0.25 4.94365 0.25 10.1168C0.25 15.2899 4.41632 19.4836 9.55573 19.4836Z" fill="#F38484"/>
</svg>
